<mxfile host="app.diagrams.net" modified="2023-12-07T03:14:06.291Z" agent="Mozilla/5.0 (Windows NT 10.0; Win64; x64; rv:120.0) Gecko/20100101 Firefox/120.0" version="22.1.7" etag="JX2XxAD5HfoLbpgiGIq1" type="github">
  <diagram name="Page-1" id="hi3zClcB6nifQ20XZJ1q">
    <mxGraphModel>
      <root>
        <mxCell id="0" />
        <mxCell id="1" parent="0" />
      </root>
    </mxGraphModel>
  </diagram>
</mxfile>
